HIERARCHY
ROOT Root
{
  OFFSET 0.0 0.0 0.0
  CHANNELS 6 Xposition Yposition Zposition Zrotation Yrotation Xrotation
  JOINT Hips
  {
    OFFSET 0.0 100.0 0.0
    CHANNELS 6 Xposition Yposition Zposition Zrotation Yrotation Xrotation
    JOINT Spine1
    {
      OFFSET 5.003913 -0.037094 -0.013727
      CHANNELS 3 Zrotation Yrotation Xrotation
      JOINT Spine2
      {
        OFFSET 7.125363 -1e-06 0.0
        CHANNELS 3 Zrotation Yrotation Xrotation
        JOINT Chest
        {
          OFFSET 7.594027 1e-06 0.0
          CHANNELS 3 Zrotation Yrotation Xrotation
          JOINT Neck1
          {
            OFFSET 26.313086 -0.460272 -0.181672
            CHANNELS 3 Zrotation Yrotation Xrotation
            JOINT Neck2
            {
              OFFSET 8.045911 0.0 0.0
              CHANNELS 3 Zrotation Yrotation Xrotation
              JOINT Head
              {
                OFFSET 6.432774 0.0 0.0
                CHANNELS 3 Zrotation Yrotation Xrotation
                JOINT HeadEnd
                {
                  OFFSET 16.169773 0.06451 0.00362
                  CHANNELS 3 Zrotation Yrotation Xrotation
                }
                JOINT Jaw
                {
                  OFFSET 0.108741 3.12938 0.002639
                  CHANNELS 3 Zrotation Yrotation Xrotation
                }
                JOINT LeftEye
                {
                  OFFSET 4.45173 8.166359 3.206392
                  CHANNELS 3 Zrotation Yrotation Xrotation
                }
                JOINT RightEye
                {
                  OFFSET 4.436895 8.135758 -3.222429
                  CHANNELS 3 Zrotation Yrotation Xrotation
                }
              }
            }
          }
          JOINT LeftShoulder
          {
            OFFSET 23.218927 5.195579 1.621656
            CHANNELS 3 Zrotation Yrotation Xrotation
            JOINT LeftArm
            {
              OFFSET 15.902118 2e-06 -2e-06
              CHANNELS 3 Zrotation Yrotation Xrotation
              JOINT LeftForeArm
              {
                OFFSET 28.739307 0.0 -1e-06
                CHANNELS 3 Zrotation Yrotation Xrotation
                JOINT LeftHand
                {
                  OFFSET 27.093981 -4e-06 0.0
                  CHANNELS 3 Zrotation Yrotation Xrotation
                  JOINT LeftHandThumb1
                  {
                    OFFSET 2.276781 3.380274 0.83384
                    CHANNELS 3 Zrotation Yrotation Xrotation
                    JOINT LeftHandThumb2
                    {
                      OFFSET 4.705309 -1e-06 -1e-06
                      CHANNELS 3 Zrotation Yrotation Xrotation
                      JOINT LeftHandThumb3
                      {
                        OFFSET 2.798515 0.0 3e-06
                        CHANNELS 3 Zrotation Yrotation Xrotation
                        JOINT LeftHandThumbEnd
                        {
                          OFFSET 3.180793 4e-06 -4e-06
                          CHANNELS 3 Zrotation Yrotation Xrotation
                        }
                      }
                    }
                  }
                  JOINT LeftHandIndex1
                  {
                    OFFSET 3.247786 2.352677 0.137192
                    CHANNELS 3 Zrotation Yrotation Xrotation
                    JOINT LeftHandIndex2
                    {
                      OFFSET 6.367095 1e-06 0.0
                      CHANNELS 3 Zrotation Yrotation Xrotation
                      JOINT LeftHandIndex3
                      {
                        OFFSET 3.662364 0.0 0.0
                        CHANNELS 3 Zrotation Yrotation Xrotation
                        JOINT LeftHandIndex4
                        {
                          OFFSET 2.329242 4e-06 -4e-06
                          CHANNELS 3 Zrotation Yrotation Xrotation
                          JOINT LeftHandIndexEnd
                          {
                            OFFSET 2.767823 1e-06 0.0
                            CHANNELS 3 Zrotation Yrotation Xrotation
                          }
                        }
                      }
                    }
                  }
                  JOINT LeftHandMiddle1
                  {
                    OFFSET 3.163612 0.945023 -0.406112
                    CHANNELS 3 Zrotation Yrotation Xrotation
                    JOINT LeftHandMiddle2
                    {
                      OFFSET 6.276789 3e-06 0.0
                      CHANNELS 3 Zrotation Yrotation Xrotation
                      JOINT LeftHandMiddle3
                      {
                        OFFSET 4.35652 -1e-06 4e-06
                        CHANNELS 3 Zrotation Yrotation Xrotation
                        JOINT LeftHandMiddle4
                        {
                          OFFSET 2.996877 0.0 8e-06
                          CHANNELS 3 Zrotation Yrotation Xrotation
                          JOINT LeftHandMiddleEnd
                          {
                            OFFSET 2.323256 3e-06 -4e-06
                            CHANNELS 3 Zrotation Yrotation Xrotation
                          }
                        }
                      }
                    }
                  }
                  JOINT LeftHandRing1
                  {
                    OFFSET 2.882606 -0.309162 0.107445
                    CHANNELS 3 Zrotation Yrotation Xrotation
                    JOINT LeftHandRing2
                    {
                      OFFSET 6.033198 0.0 4e-06
                      CHANNELS 3 Zrotation Yrotation Xrotation
                      JOINT LeftHandRing3
                      {
                        OFFSET 4.350578 3e-06 0.0
                        CHANNELS 3 Zrotation Yrotation Xrotation
                        JOINT LeftHandRing4
                        {
                          OFFSET 2.651321 2e-06 -7e-06
                          CHANNELS 3 Zrotation Yrotation Xrotation
                          JOINT LeftHandRingEnd
                          {
                            OFFSET 1.937663 1e-06 -4e-06
                            CHANNELS 3 Zrotation Yrotation Xrotation
                          }
                        }
                      }
                    }
                  }
                  JOINT LeftHandPinky1
                  {
                    OFFSET 2.865315 -1.525436 0.575687
                    CHANNELS 3 Zrotation Yrotation Xrotation
                    JOINT LeftHandPinky2
                    {
                      OFFSET 5.54936 1e-06 -8e-06
                      CHANNELS 3 Zrotation Yrotation Xrotation
                      JOINT LeftHandPinky3
                      {
                        OFFSET 3.070974 0.0 -4e-06
                        CHANNELS 3 Zrotation Yrotation Xrotation
                        JOINT LeftHandPinky4
                        {
                          OFFSET 1.549672 1e-06 0.0
                          CHANNELS 3 Zrotation Yrotation Xrotation
                          JOINT LeftHandPinkyEnd
                          {
                            OFFSET 1.952123 0.0 0.0
                            CHANNELS 3 Zrotation Yrotation Xrotation
                          }
                        }
                      }
                    }
                  }
                }
              }
            }
          }
          JOINT RightShoulder
          {
            OFFSET 23.161716 5.296122 -1.380114
            CHANNELS 3 Zrotation Yrotation Xrotation
            JOINT RightArm
            {
              OFFSET -16.027195 -2e-06 1.1e-05
              CHANNELS 3 Zrotation Yrotation Xrotation
              JOINT RightForeArm
              {
                OFFSET -28.736639 4e-06 2e-06
                CHANNELS 3 Zrotation Yrotation Xrotation
                JOINT RightHand
                {
                  OFFSET -27.133619 6e-06 0.0
                  CHANNELS 3 Zrotation Yrotation Xrotation
                  JOINT RightHandThumb1
                  {
                    OFFSET -2.274328 -3.351035 -0.83067
                    CHANNELS 3 Zrotation Yrotation Xrotation
                    JOINT RightHandThumb2
                    {
                      OFFSET -4.703594 -3e-06 2e-06
                      CHANNELS 3 Zrotation Yrotation Xrotation
                      JOINT RightHandThumb3
                      {
                        OFFSET -2.794935 -4e-06 -3e-06
                        CHANNELS 3 Zrotation Yrotation Xrotation
                        JOINT RightHandThumbEnd
                        {
                          OFFSET -3.183852 4e-06 1e-06
                          CHANNELS 3 Zrotation Yrotation Xrotation
                        }
                      }
                    }
                  }
                  JOINT RightHandIndex1
                  {
                    OFFSET -3.253496 -2.33755 -0.127667
                    CHANNELS 3 Zrotation Yrotation Xrotation
                    JOINT RightHandIndex2
                    {
                      OFFSET -6.344434 0.0 0.0
                      CHANNELS 3 Zrotation Yrotation Xrotation
                      JOINT RightHandIndex3
                      {
                        OFFSET -3.654871 0.0 -8e-06
                        CHANNELS 3 Zrotation Yrotation Xrotation
                        JOINT RightHandIndex4
                        {
                          OFFSET -2.327586 -1e-06 0.0
                          CHANNELS 3 Zrotation Yrotation Xrotation
                          JOINT RightHandIndexEnd
                          {
                            OFFSET -2.770001 3e-06 8e-06
                            CHANNELS 3 Zrotation Yrotation Xrotation
                          }
                        }
                      }
                    }
                  }
                  JOINT RightHandMiddle1
                  {
                    OFFSET -3.168223 -0.944764 0.411762
                    CHANNELS 3 Zrotation Yrotation Xrotation
                    JOINT RightHandMiddle2
                    {
                      OFFSET -6.266691 -1e-06 -4e-06
                      CHANNELS 3 Zrotation Yrotation Xrotation
                      JOINT RightHandMiddle3
                      {
                        OFFSET -4.348901 0.0 0.0
                        CHANNELS 3 Zrotation Yrotation Xrotation
                        JOINT RightHandMiddle4
                        {
                          OFFSET -3.00024 2e-06 -4e-06
                          CHANNELS 3 Zrotation Yrotation Xrotation
                          JOINT RightHandMiddleEnd
                          {
                            OFFSET -2.321477 -4e-06 -4e-06
                            CHANNELS 3 Zrotation Yrotation Xrotation
                          }
                        }
                      }
                    }
                  }
                  JOINT RightHandRing1
                  {
                    OFFSET -2.885654 0.293261 -0.119232
                    CHANNELS 3 Zrotation Yrotation Xrotation
                    JOINT RightHandRing2
                    {
                      OFFSET -6.032835 -1e-06 -4e-06
                      CHANNELS 3 Zrotation Yrotation Xrotation
                      JOINT RightHandRing3
                      {
                        OFFSET -4.33881 0.0 -4e-06
                        CHANNELS 3 Zrotation Yrotation Xrotation
                        JOINT RightHandRing4
                        {
                          OFFSET -2.654903 -4e-06 -4e-06
                          CHANNELS 3 Zrotation Yrotation Xrotation
                          JOINT RightHandRingEnd
                          {
                            OFFSET -1.935122 0.0 4e-06
                            CHANNELS 3 Zrotation Yrotation Xrotation
                          }
                        }
                      }
                    }
                  }
                  JOINT RightHandPinky1
                  {
                    OFFSET -2.866241 1.503904 -0.60527
                    CHANNELS 3 Zrotation Yrotation Xrotation
                    JOINT RightHandPinky2
                    {
                      OFFSET -5.553177 -2e-06 0.0
                      CHANNELS 3 Zrotation Yrotation Xrotation
                      JOINT RightHandPinky3
                      {
                        OFFSET -3.062664 -1e-06 -4e-06
                        CHANNELS 3 Zrotation Yrotation Xrotation
                        JOINT RightHandPinky4
                        {
                          OFFSET -1.546529 2e-06 4e-06
                          CHANNELS 3 Zrotation Yrotation Xrotation
                          JOINT RightHandPinkyEnd
                          {
                            OFFSET -1.952341 0.0 -4e-06
                            CHANNELS 3 Zrotation Yrotation Xrotation
                          }
                        }
                      }
                    }
                  }
                }
              }
            }
          }
        }
      }
    }
    JOINT LeftLeg
    {
      OFFSET -8.443107 2.567604 10.043214
      CHANNELS 3 Zrotation Yrotation Xrotation
      JOINT LeftShin
      {
        OFFSET 43.229198 1e-06 -1e-06
        CHANNELS 3 Zrotation Yrotation Xrotation
        JOINT LeftFoot
        {
          OFFSET 42.298611 1e-06 1e-06
          CHANNELS 3 Zrotation Yrotation Xrotation
          JOINT LeftToeBase
          {
            OFFSET 14.165858 1e-06 0.0
            CHANNELS 3 Zrotation Yrotation Xrotation
            JOINT LeftToeEnd
            {
              OFFSET 6.7141 -0.234461 0.0
              CHANNELS 3 Zrotation Yrotation Xrotation
            }
          }
        }
      }
    }
    JOINT RightLeg
    {
      OFFSET -8.303923 2.592729 -10.047278
      CHANNELS 3 Zrotation Yrotation Xrotation
      JOINT RightShin
      {
        OFFSET -43.369682 0.0 1e-06
        CHANNELS 3 Zrotation Yrotation Xrotation
        JOINT RightFoot
        {
          OFFSET -42.260784 4e-06 2e-06
          CHANNELS 3 Zrotation Yrotation Xrotation
          JOINT RightToeBase
          {
            OFFSET -14.222245 -2e-06 -1e-06
            CHANNELS 3 Zrotation Yrotation Xrotation
            JOINT RightToeEnd
            {
              OFFSET -6.660062 0.232574 -2e-06
              CHANNELS 3 Zrotation Yrotation Xrotation
            }
          }
        }
      }
    }
  }
}
MOTION
Frames: 4
Frame Time: 0.03333333333333333
0.0 0.0 0.0 0.0 -0.0 0.0 2.307799 49.385361 5.541947 95.795586 -62.437183 87.440216 11.735343 -1.106988 -0.769148 -5.705926 -0.763629 -0.388343 17.004408 -1.407641 -3.245669 28.033228 3.780143 4.387802 -2.833566 -0.709897 1.55711 -25.890902 -0.199489 1.053971 6e-06 0.0 -0.0 -0.245209 0.074348 0.023838 -0.323806 0.178279 0.036983 -0.364495 -0.023367 -0.003399 -40.950634 -68.242424 44.605709 96.627708 -5.299006 -21.740587 7.566462 -1.341207 -0.093288 -18.446468 84.874512 -17.86895 17.636635 -26.322725 52.41119 -19.466656 -14.3956 29.410385 -2e-06 -8.774822 -2e-06 15.038296 -17.738131 6.671249 -0.609776 -1.795653 -3.889328 -4.807089 -11.046808 -2.937851 5e-06 -20.976015 -1e-06 -5.019969 -25.033554 -4.03188 6e-06 0.0 1e-06 -10.634535 -5.68697 -3.565587 10.573275 -17.922951 -3.113901 3e-06 -13.821205 1e-06 -0.501776 -31.181498 -4.027017 -10.314626 -57.831184 6.549476 -13.982716 -7.150198 -2.875041 13.772729 -8.401489 -3.218241 0.347734 -34.211544 0.771654 -0.963027 -17.733364 2.621019 0.0 0.0 0.0 -17.34642 -20.095213 -4.201782 21.757563 -1.638377 3.866428 2e-06 -6.338821 0.0 -1.697589 -22.591738 -6.194006 -1e-06 -7e-06 -1e-06 145.087921 -65.149727 35.563362 95.92231 -7.376614 -23.373787 9.186769 -1.57374 -0.201425 16.225912 76.522095 16.026424 22.182121 -20.375893 49.933319 -16.701811 -16.743528 28.476522 -3e-06 -12.690601 -1e-06 16.488916 -17.298771 2.32432 -0.10592 -1.513856 -4.275881 -5.039041 -5.612869 -2.953556 4e-06 -11.02052 -2e-06 -6.111298 -15.89533 -3.84047 -0.0 -1e-06 -0.0 -10.283371 -5.680288 -4.341838 11.028296 -11.302406 -2.372633 -1.384269 -14.238577 -6.320121 -0.625437 -26.924187 -3.827602 -4.282912 -48.881588 -4.086921 -13.708526 -7.363477 -3.72094 18.14115 -14.052734 -3.242672 6e-06 -18.787271 -2e-06 -0.429711 -8.456042 2.555504 -0.0 -0.0 0.0 -15.923536 -20.094482 -5.473585 30.41921 -7.190823 1.735928 2e-06 -8.162925 -0.0 -1.861901 -22.861469 -6.167943 0.0 -2e-06 -1e-06 117.401566 0.443922 -1.952328 105.000237 0.291893 0.326615 -56.822464 9.321658 -9.88698 -7.525467 1.364964 2.608602 -0.999999 -0.0 0.0 -60.630306 -7.628115 4.942077 107.835381 -0.337867 0.063592 -76.639183 0.744592 -13.030005 -8.3981 0.571766 2.041139 -1.000001 -0.0 -0.0 
0.0 0.0 0.0 0.0 -0.0 0.0 2.466059 49.364811 5.588043 95.60611 -62.539322 87.578835 11.627249 -1.030972 -0.705524 -5.779057 -0.705463 -0.36524 17.131273 -1.390458 -3.162621 28.152058 3.710797 4.26216 -2.812572 -0.704054 1.545489 -25.871212 -0.235674 1.024958 6e-06 1e-06 -0.0 -0.243832 0.032111 0.023045 -0.310275 0.132225 0.038675 -0.357914 -0.059513 -0.008216 -41.03175 -68.288536 45.006599 96.989456 -4.998963 -22.099024 7.186584 -1.352993 -0.090489 -13.251269 85.125404 -12.836952 17.636625 -26.322729 52.411182 -19.466658 -14.395596 29.410378 -1e-06 -8.774821 -2e-06 14.987548 -17.823879 6.745366 -0.609776 -1.795653 -3.889327 -4.807087 -11.046811 -2.93785 4e-06 -20.976019 0.0 -5.019972 -25.03356 -4.031878 6e-06 -0.0 2e-06 -10.634533 -5.68697 -3.565587 10.573274 -17.922955 -3.1139 3e-06 -13.821209 1e-06 -0.501777 -31.181505 -4.027017 -10.284024 -58.064571 6.58631 -13.982712 -7.150198 -2.875041 13.772729 -8.401489 -3.218241 0.347734 -34.211552 0.771656 -0.963028 -17.73337 2.621019 0.0 0.0 0.0 -17.346413 -20.095217 -4.20178 21.757555 -1.638376 3.866427 1e-06 -6.338824 1e-06 -1.697589 -22.591742 -6.194004 -1e-06 -5e-06 -3e-06 144.955566 -65.014488 35.892693 95.849144 -7.148293 -23.483238 9.04906 -1.474029 -0.187673 17.3708 76.277344 16.880365 22.182116 -20.375898 49.933327 -16.701818 -16.74353 28.476536 -3e-06 -12.690601 0.0 16.426357 -17.271498 2.361807 -0.105919 -1.513857 -4.275882 -5.039041 -5.612874 -2.953557 5e-06 -11.020528 -2e-06 -6.111297 -15.895341 -3.84047 -1e-06 -1e-06 -0.0 -10.283371 -5.680291 -4.341838 11.028296 -11.30241 -2.372634 -1.384267 -14.238583 -6.320122 -0.625437 -26.924196 -3.827603 -4.270598 -49.01585 -4.019354 -13.708526 -7.363479 -3.720939 18.141153 -14.052744 -3.242676 7e-06 -18.787275 -2e-06 -0.429711 -8.456043 2.555504 -0.0 -0.0 0.0 -15.923536 -20.09449 -5.473584 30.419222 -7.190827 1.735923 3e-06 -8.162929 -1e-06 -1.861901 -22.861479 -6.167944 1e-06 -2e-06 -1e-06 117.336945 0.51668 -1.999092 104.977654 0.267867 0.336134 -56.733456 9.018938 -9.824494 -7.404842 1.391849 2.606079 -0.999999 0.0 -0.0 -60.681648 -7.679453 4.991605 107.703323 -0.320438 0.059568 -76.272408 0.645801 -13.009463 -8.295224 0.549923 2.057356 -1.000003 0.0 -0.0 
0.0 0.0 0.0 0.0 -0.0 0.0 2.598169 49.335381 5.615574 95.579254 -62.595032 87.595879 11.503595 -0.976848 -0.644253 -5.841097 -0.65568 -0.315364 17.269861 -1.40064 -3.118478 28.306784 3.713965 4.114752 -2.798524 -0.73514 1.539009 -25.993017 -0.336925 1.007106 6e-06 0.0 0.0 -0.239818 0.001207 0.023081 -0.344456 0.0959 0.030565 -0.385315 -0.084022 -0.0035 -40.826351 -68.300606 45.023411 97.200516 -4.844272 -22.050886 7.015924 -1.342171 -0.083571 -12.584525 85.179443 -12.345344 17.636625 -26.322733 52.411213 -19.46666 -14.395598 29.410395 -1e-06 -8.774821 -2e-06 15.003011 -17.840771 6.737926 -0.609776 -1.795653 -3.889328 -4.807088 -11.04681 -2.937851 5e-06 -20.976019 -2e-06 -5.019969 -25.033558 -4.031882 5e-06 -0.0 2e-06 -10.634533 -5.686969 -3.565588 10.573271 -17.922953 -3.113902 3e-06 -13.821206 0.0 -0.501775 -31.181501 -4.027019 -10.196165 -58.204197 6.559182 -13.982714 -7.150197 -2.875043 13.77273 -8.401492 -3.218243 0.347734 -34.211552 0.771654 -0.963028 -17.73337 2.621019 0.0 -0.0 1e-06 -17.346416 -20.095217 -4.201784 21.757557 -1.638374 3.866427 1e-06 -6.338822 1e-06 -1.697587 -22.591743 -6.194008 -1e-06 -5e-06 -3e-06 145.039627 -64.950462 36.020184 95.559258 -6.941623 -23.493458 9.118854 -1.438874 -0.184274 18.49238 76.228889 18.071026 22.18211 -20.375889 49.933311 -16.701813 -16.743528 28.47653 -3e-06 -12.690601 -1e-06 16.382524 -17.195133 2.397197 -0.10592 -1.513855 -4.275881 -5.039041 -5.612871 -2.953556 4e-06 -11.020521 -2e-06 -6.111297 -15.895334 -3.840471 -0.0 -1e-06 -0.0 -10.283369 -5.680286 -4.341839 11.028293 -11.302406 -2.372633 -1.384268 -14.238577 -6.320121 -0.625437 -26.924183 -3.827601 -4.231362 -49.04689 -3.964747 -13.708522 -7.363477 -3.720939 18.141146 -14.052738 -3.242674 7e-06 -18.78727 -2e-06 -0.429711 -8.456038 2.555504 -0.0 0.0 0.0 -15.923536 -20.094482 -5.473584 30.41921 -7.190826 1.735927 2e-06 -8.162922 -1e-06 -1.861903 -22.861469 -6.167942 1e-06 -1e-06 -1e-06 117.326286 0.593911 -2.087085 105.001778 0.277132 0.346609 -56.893257 8.654744 -9.849186 -7.454013 1.404596 2.61277 -0.999998 1e-06 -0.0 -60.703018 -7.739726 5.125546 107.648201 -0.300673 0.069206 -76.118286 0.633973 -13.063928 -8.324517 0.539329 2.073885 -1.000003 0.0 -0.0 
0.0 0.0 0.0 0.0 -0.0 0.0 2.67206 49.302685 5.621188 95.571404 -62.670803 87.646492 11.380243 -0.927606 -0.597606 -5.895442 -0.633984 -0.275733 17.371677 -1.371165 -3.116305 28.390072 3.724265 3.970945 -2.788462 -0.774464 1.5049 -26.162117 -0.427906 1.017701 6e-06 0.0 -0.0 -0.23826 -0.023115 0.023042 -0.39413 0.066239 0.01812 -0.423447 -0.103533 0.00661 -40.643963 -68.315659 45.019829 97.317818 -4.756421 -21.97521 6.971304 -1.327177 -0.082234 -12.232913 85.318893 -11.817818 17.636627 -26.322733 52.411205 -19.466663 -14.395597 29.410395 -0.0 -8.77482 -2e-06 15.011738 -17.811768 6.712619 -0.609776 -1.795653 -3.889328 -4.807088 -11.046813 -2.937851 4e-06 -20.976019 -1e-06 -5.019969 -25.03356 -4.031879 6e-06 0.0 1e-06 -10.634535 -5.686971 -3.565588 10.573274 -17.922955 -3.113902 3e-06 -13.821211 0.0 -0.501776 -31.181507 -4.027017 -10.148162 -58.25523 6.519779 -13.982716 -7.150198 -2.875043 13.772729 -8.401493 -3.218243 0.347734 -34.211555 0.771655 -0.963029 -17.73337 2.62102 0.0 0.0 -0.0 -17.34642 -20.095217 -4.201784 21.757557 -1.638377 3.866428 1e-06 -6.338823 1e-06 -1.697587 -22.591743 -6.194008 -0.0 -6e-06 -2e-06 145.13913 -64.899307 36.059086 95.251823 -6.840291 -23.418215 9.35125 -1.388577 -0.185024 19.118294 76.277283 18.886789 22.18211 -20.375895 49.933319 -16.701815 -16.74353 28.476534 -1e-06 -12.690601 -0.0 16.390879 -17.155098 2.433411 -0.10592 -1.513854 -4.275881 -5.039041 -5.612871 -2.953556 4e-06 -11.02052 -2e-06 -6.111297 -15.895332 -3.84047 -0.0 -1e-06 0.0 -10.283369 -5.680286 -4.341838 11.028294 -11.302404 -2.372633 -1.384268 -14.238574 -6.32012 -0.625437 -26.924179 -3.827599 -4.220534 -49.109188 -3.899336 -13.708525 -7.363474 -3.720939 18.141148 -14.052737 -3.242674 6e-06 -18.78727 -1e-06 -0.429712 -8.456039 2.555504 0.0 -0.0 0.0 -15.923532 -20.094479 -5.473586 30.41921 -7.190826 1.735925 2e-06 -8.162922 0.0 -1.861904 -22.861467 -6.167939 1e-06 -2e-06 -1e-06 117.26651 0.66432 -2.102385 105.08017 0.307301 0.352748 -57.22818 8.431478 -9.929863 -7.657221 1.419106 2.614278 -0.999998 -0.0 -1e-06 -60.754013 -7.785449 5.247252 107.658676 -0.252743 0.076024 -76.145699 0.604763 -13.198886 -8.38943 0.533178 2.092231 -1.000002 -0.0 -0.0 
